<svg width="20" height="20" viewBox="0 0 20 20" fill="none" xmlns="http://www.w3.org/2000/svg">
<path d="M10.0003 2.5C5.41699 2.5 1.66699 5.48333 1.66699 9.16667C1.68803 10.0522 1.90435 10.9222 2.30049 11.7145C2.69664 12.5068 3.26284 13.2018 3.95866 13.75C3.95866 14.25 3.60866 15.5583 1.66699 17.5C3.64199 17.4083 5.53366 16.6667 7.05866 15.4167C8.00866 15.6917 9.00866 15.8333 10.0003 15.8333C14.5837 15.8333 18.3337 12.85 18.3337 9.16667C18.3337 5.48333 14.5837 2.5 10.0003 2.5ZM10.0003 14.1667C6.31699 14.1667 3.33366 11.925 3.33366 9.16667C3.33366 6.40833 6.31699 4.16667 10.0003 4.16667C13.6837 4.16667 16.667 6.40833 16.667 9.16667C16.667 11.925 13.6837 14.1667 10.0003 14.1667Z" fill="#000000"/>
</svg>
